<svg width="24" height="24" viewBox="0 0 24 24" fill="none" xmlns="http://www.w3.org/2000/svg">
<path d="M8.57031 15.27L15.1103 8.72998" stroke="white" stroke-width="1.5" stroke-linecap="round" stroke-linejoin="round"/>
<path d="M8.98001 10.37C9.65932 10.37 10.21 9.81936 10.21 9.14005C10.21 8.46073 9.65932 7.91003 8.98001 7.91003C8.3007 7.91003 7.75 8.46073 7.75 9.14005C7.75 9.81936 8.3007 10.37 8.98001 10.37Z" stroke="white" stroke-width="1.5" stroke-linecap="round" stroke-linejoin="round"/>
<path d="M15.519 16.09C16.1984 16.09 16.7491 15.5393 16.7491 14.86C16.7491 14.1807 16.1984 13.63 15.519 13.63C14.8397 13.63 14.2891 14.1807 14.2891 14.86C14.2891 15.5393 14.8397 16.09 15.519 16.09Z" stroke="white" stroke-width="1.5" stroke-linecap="round" stroke-linejoin="round"/>
<path d="M12 22C17.5228 22 22 17.5228 22 12C22 6.47715 17.5228 2 12 2C6.47715 2 2 6.47715 2 12C2 17.5228 6.47715 22 12 22Z" stroke="white" stroke-width="1.5" stroke-linecap="round" stroke-linejoin="round"/>
</svg>
