<svg width="32" height="32" viewBox="0 0 32 32" fill="none" xmlns="http://www.w3.org/2000/svg">
<path d="M28.8937 19.0667L28.3603 25.7334C28.1603 27.7734 28.0003 29.3334 24.387 29.3334H7.61367C4.00034 29.3334 3.84034 27.7734 3.64034 25.7334L3.10701 19.0667C3.00034 17.9601 3.34701 16.9334 3.97367 16.1467C3.98701 16.1334 3.98701 16.1334 4.00034 16.1201C4.73367 15.2267 5.84034 14.6667 7.08034 14.6667H24.9203C26.1603 14.6667 27.2537 15.2267 27.9737 16.0934C27.987 16.1067 28.0003 16.1201 28.0003 16.1334C28.6537 16.9201 29.0137 17.9467 28.8937 19.0667Z" stroke="#F88203" stroke-width="1.5" stroke-miterlimit="10"/>
<path d="M4.66602 15.24V8.37333C4.66602 3.84 5.79935 2.70667 10.3327 2.70667H12.026C13.7193 2.70667 14.106 3.21333 14.746 4.06666L16.4393 6.33333C16.866 6.89333 17.1193 7.24 18.2527 7.24H21.6527C26.186 7.24 27.3193 8.37333 27.3193 12.9067V15.2933" stroke="#F88203" stroke-width="1.5" stroke-miterlimit="10" stroke-linecap="round" stroke-linejoin="round"/>
<path d="M12.5742 22.6667H19.4276" stroke="#F88203" stroke-width="1.5" stroke-miterlimit="10" stroke-linecap="round" stroke-linejoin="round"/>
</svg>
