<svg id="Layer_1" data-name="Layer 1" xmlns="http://www.w3.org/2000/svg" viewBox="0 0 579.1697 111.2414"><defs><style>.cls-1{fill:#3f65ee;}.cls-2{fill:#fff;}</style></defs><path d="M173.5727,49.2471l44.9011,40.79H197.1373L160.516,56.34V90.0372H145.2889V7.2414H160.516V43.7755L195.7483,7.2414h19.7728Z"/><path d="M275.1034,69.31a30.7677,30.7677,0,0,1-3.8429,9.3961,26.7122,26.7122,0,0,1-6.3673,7.04,27.9958,27.9958,0,0,1-8.5261,4.4316,33.2706,33.2706,0,0,1-10.2937,1.543,34.2374,34.2374,0,0,1-8.68-1.0662,29.45,29.45,0,0,1-7.5027-3.0711,27.6529,27.6529,0,0,1-6.1433-4.88,28.3557,28.3557,0,0,1-4.6-6.5069,34.1492,34.1492,0,0,1-2.8893-7.9515,40.38,40.38,0,0,1-1.01-9.2A38.344,38.344,0,0,1,217.45,45.75a29.8343,29.8343,0,0,1,6.213-10.28,27.5827,27.5827,0,0,1,9.62-6.6195,32.0289,32.0289,0,0,1,12.4535-2.3417,31.2939,31.2939,0,0,1,12.2146,2.3,26.3333,26.3333,0,0,1,9.3539,6.5212,29.21,29.21,0,0,1,5.974,10.21,40.1141,40.1141,0,0,1,2.1038,13.3648q0,1.0935-.0423,2.1879t-.1818,2.3H229.1607a22.9239,22.9239,0,0,0,1.8363,6.9139,16.7092,16.7092,0,0,0,3.605,5.1749,15.0469,15.0469,0,0,0,5.2023,3.2535,18.7411,18.7411,0,0,0,6.6338,1.1216,15.6889,15.6889,0,0,0,9.2841-2.636,16.9421,16.9421,0,0,0,5.806-7.91Zm-13.66-16.0157q-1.1227-7.3761-5.09-11.2049-3.9691-3.8289-10.56-3.8286a17.8691,17.8691,0,0,0-6.1432,1.01,14.2445,14.2445,0,0,0-4.8662,2.9453,15.9663,15.9663,0,0,0-3.4633,4.7261,22.7063,22.7063,0,0,0-1.9642,6.3525Z"/><path d="M343.7647,69.31a30.7677,30.7677,0,0,1-3.8429,9.3961,26.7122,26.7122,0,0,1-6.3673,7.04,27.9958,27.9958,0,0,1-8.5261,4.4316,33.2711,33.2711,0,0,1-10.2937,1.543,34.2374,34.2374,0,0,1-8.68-1.0662,29.45,29.45,0,0,1-7.5027-3.0711,27.6529,27.6529,0,0,1-6.1433-4.88,28.3557,28.3557,0,0,1-4.6-6.5069,34.1492,34.1492,0,0,1-2.8893-7.9515,40.38,40.38,0,0,1-1.01-9.2A38.344,38.344,0,0,1,286.1117,45.75a29.8343,29.8343,0,0,1,6.213-10.28,27.5827,27.5827,0,0,1,9.62-6.6195,32.0289,32.0289,0,0,1,12.4535-2.3417,31.2939,31.2939,0,0,1,12.2146,2.3,26.332,26.332,0,0,1,9.3538,6.5212,29.2081,29.2081,0,0,1,5.9741,10.21,40.1141,40.1141,0,0,1,2.1038,13.3648q0,1.0935-.0423,2.1879t-.1818,2.3H297.822a22.9239,22.9239,0,0,0,1.8363,6.9139,16.7092,16.7092,0,0,0,3.605,5.1749,15.0469,15.0469,0,0,0,5.2023,3.2535,18.7407,18.7407,0,0,0,6.6338,1.1216,15.6889,15.6889,0,0,0,9.2841-2.636,16.9427,16.9427,0,0,0,5.806-7.91Zm-13.66-16.0157q-1.1227-7.3761-5.09-11.2049-3.9692-3.8289-10.56-3.8286a17.8687,17.8687,0,0,0-6.1432,1.01,14.2445,14.2445,0,0,0-4.8662,2.9453,15.9663,15.9663,0,0,0-3.4633,4.7261,22.7063,22.7063,0,0,0-1.9642,6.3525Z"/><path d="M367.9982,47.0958a35.67,35.67,0,0,1,3.1409-8.6392,24.8763,24.8763,0,0,1,4.81-6.4651,19.8683,19.8683,0,0,1,6.3114-4.067,20.2983,20.2983,0,0,1,7.6433-1.4161A22.5889,22.5889,0,0,1,403.17,30.7155a24.66,24.66,0,0,1,5.1051,4.9227,30.5744,30.5744,0,0,1,3.87,6.5212A37.8267,37.8267,0,0,1,414.6,50.0549a48.203,48.203,0,0,1,0,18.0908,37.8155,37.8155,0,0,1-2.4537,7.8955,30.5868,30.5868,0,0,1-3.87,6.5212,24.9938,24.9938,0,0,1-5.1051,4.9365A22.4781,22.4781,0,0,1,389.9039,91.72a20.2887,20.2887,0,0,1-7.6433-1.4166,19.8512,19.8512,0,0,1-6.3114-4.067,24.8678,24.8678,0,0,1-4.81-6.4651,35.6411,35.6411,0,0,1-3.1409-8.6387v40.1086h-14.08v-83.05h14.08Zm0,12.0042a29.9821,29.9821,0,0,0,1.1354,8.6107,18.0265,18.0265,0,0,0,3.31,6.4091,14.2248,14.2248,0,0,0,5.3007,3.9972,17.4418,17.4418,0,0,0,7.0831,1.3743,17.8906,17.8906,0,0,0,7.1095-1.3183,13.2842,13.2842,0,0,0,5.1611-3.8988,17.5409,17.5409,0,0,0,3.1556-6.3811A32.6842,32.6842,0,0,0,401.3193,59.1a32.6891,32.6891,0,0,0-1.0657-8.793A17.4043,17.4043,0,0,0,397.098,43.94a13.3411,13.3411,0,0,0-5.1611-3.8846,17.9011,17.9011,0,0,0-7.1095-1.3183,17.5117,17.5117,0,0,0-7.1106,1.3743,14.1739,14.1739,0,0,0-5.2869,3.9829,18.0133,18.0133,0,0,0-3.2963,6.3949A29.9868,29.9868,0,0,0,367.9982,59.1Z"/><path d="M424.7663,49.9285a52.7962,52.7962,0,0,1,1.2623-11.78,43.1532,43.1532,0,0,1,3.6462-10.1673,37.31,37.31,0,0,1,5.7912-8.33,34.582,34.582,0,0,1,7.6719-6.2405,36.4869,36.4869,0,0,1,9.3253-3.9132,42.9941,42.9941,0,0,1,21.4564,0A36.51,36.51,0,0,1,483.246,13.41a34.6012,34.6012,0,0,1,7.6708,6.2405,36.9859,36.9859,0,0,1,5.7785,8.3305,44.1138,44.1138,0,0,1,3.6462,10.1673,52.2258,52.2258,0,0,1,1.276,11.78,52.2219,52.2219,0,0,1-1.276,11.78,44.1062,44.1062,0,0,1-3.6462,10.1674,36.99,36.99,0,0,1-5.7785,8.3305,34.5872,34.5872,0,0,1-7.6708,6.24A36.4727,36.4727,0,0,1,473.92,90.36a42.9757,42.9757,0,0,1-21.4564,0,36.45,36.45,0,0,1-9.3253-3.9126,34.568,34.568,0,0,1-7.6719-6.24,37.3149,37.3149,0,0,1-5.7912-8.33,43.146,43.146,0,0,1-3.6462-10.1674A52.7923,52.7923,0,0,1,424.7663,49.9285Zm14.8089,0a42.4317,42.4317,0,0,0,1.5985,12.1586,25.62,25.62,0,0,0,4.6283,9.0314,19.666,19.666,0,0,0,7.4181,5.61,26.8342,26.8342,0,0,0,19.9426,0,19.6782,19.6782,0,0,0,7.4192-5.61,25.6023,25.6023,0,0,0,4.6272-9.0314,42.43,42.43,0,0,0,1.6-12.1586,42.433,42.433,0,0,0-1.6-12.159,25.6071,25.6071,0,0,0-4.6272-9.0315,19.687,19.687,0,0,0-7.4192-5.6093,26.8329,26.8329,0,0,0-19.9426,0,19.6748,19.6748,0,0,0-7.4181,5.6093,25.6251,25.6251,0,0,0-4.6283,9.0315A42.4346,42.4346,0,0,0,439.5752,49.9285Z"/><path d="M543.8569,8.1369A46.2578,46.2578,0,0,1,557.32,9.96a30.0781,30.0781,0,0,1,10.2377,5.2309,23.0161,23.0161,0,0,1,6.5217,8.3162,25.8811,25.8811,0,0,1,2.2856,11.0512H562.1164a12.3259,12.3259,0,0,0-1.332-5.7643,12.7446,12.7446,0,0,0-3.7583-4.3751,17.8127,17.8127,0,0,0-5.82-2.7772,27.39,27.39,0,0,0-7.5176-.9673,33.4149,33.4149,0,0,0-4.5437.3082,26.087,26.087,0,0,0-4.2911.9541,20.3382,20.3382,0,0,0-3.7868,1.6127,13.072,13.072,0,0,0-3.015,2.2719A9.6992,9.6992,0,0,0,526.06,28.78a9.0989,9.0989,0,0,0-.7146,3.6462,6.9321,6.9321,0,0,0,1.3183,4.4037,9.5182,9.5182,0,0,0,3.8005,2.7623,28.4753,28.4753,0,0,0,6.1,1.7534q3.6188.6731,8.19,1.3463l3.7308.5608q3.3666.505,6.9562,1.1359a61.0429,61.0429,0,0,1,6.9974,1.655,36.9284,36.9284,0,0,1,6.4509,2.6086,20,20,0,0,1,5.3292,3.9967,17.7643,17.7643,0,0,1,3.6187,5.806,22.0006,22.0006,0,0,1,1.3321,8.05,23.2384,23.2384,0,0,1-2.496,11.0089,22.0745,22.0745,0,0,1-7.026,7.8812,32.71,32.71,0,0,1-10.8688,4.74,57.9744,57.9744,0,0,1-14.052,1.5847,55.3952,55.3952,0,0,1-14.9357-1.8374,32.1509,32.1509,0,0,1-11.0654-5.3149,22.9532,22.9532,0,0,1-6.8854-8.5267,26.68,26.68,0,0,1-2.37-11.4719h14.2486a12.789,12.789,0,0,0,1.4589,6.1427,13.0767,13.0767,0,0,0,4.1653,4.6,20.2836,20.2836,0,0,0,6.5629,2.875,34.7692,34.7692,0,0,0,8.68.9958,38.161,38.161,0,0,0,7.7692-.7574,21.7779,21.7779,0,0,0,6.3811-2.3137,12.4919,12.4919,0,0,0,4.32-3.9411,9.898,9.898,0,0,0,1.5847-5.6094,8.0082,8.0082,0,0,0-1.3183-4.7964,9.303,9.303,0,0,0-3.7582-2.9447,24.8928,24.8928,0,0,0-5.8621-1.7533q-3.422-.6312-7.63-1.248l-4.7118-.7015q-2.5245-.3639-5.1886-.7849-2.6656-.4211-5.2869-1.01-2.6229-.5885-5.1189-1.3881a30.6761,30.6761,0,0,1-4.7266-1.9494,23.2227,23.2227,0,0,1-4.1092-2.6927,16.1018,16.1018,0,0,1-3.2392-3.6044,17.0163,17.0163,0,0,1-2.1175-4.6838,21.3693,21.3693,0,0,1-.7569-5.9323,23.09,23.09,0,0,1,1.1776-7.5308,21.6428,21.6428,0,0,1,3.31-6.2125,22.8044,22.8044,0,0,1,5.1463-4.8661,31.374,31.374,0,0,1,6.676-3.4924,41.1965,41.1965,0,0,1,7.895-2.1175A52.997,52.997,0,0,1,543.8569,8.1369Z"/><rect class="cls-1" width="100" height="100" rx="2"/><rect class="cls-2" x="13.9521" y="11.2775" width="31.4454" height="36.3831" rx="1.2994"/><rect class="cls-2" x="13.9521" y="52.8583" width="31.4454" height="36.3831" rx="1.2994"/><path class="cls-2" d="M61.255,53.3777a1.7947,1.7947,0,0,0-1.2628-.5194H51.8945a1.2994,1.2994,0,0,0-1.2994,1.2994V87.942a1.2994,1.2994,0,0,0,1.2994,1.2994H85.6788a1.2994,1.2994,0,0,0,1.2994-1.2994V79.5949a1.7946,1.7946,0,0,0-.532-1.2754Z"/><path class="cls-2" d="M85.6788,11.2775H51.8945a1.2994,1.2994,0,0,0-1.2994,1.2994V46.3613a1.2994,1.2994,0,0,0,1.2994,1.2994h8.0977a1.7951,1.7951,0,0,0,1.2628-.5194L86.4462,22.1994a1.7944,1.7944,0,0,0,.532-1.2754V12.5769A1.2994,1.2994,0,0,0,85.6788,11.2775Z"/></svg>