<svg width="117" height="24" viewBox="0 0 117 24" fill="none" xmlns="http://www.w3.org/2000/svg">
<path d="M34.205 11.2094L44.2647 19.5155H40.4566L31.9404 12.3196V19.5155H29.4375V2.53516H31.9405V10.2594L40.099 2.53516H43.6092L34.205 11.2094Z" fill="#020202"/>
<path d="M55.4747 15.1786C55.3185 15.8747 55.0487 16.5407 54.676 17.1498C54.3277 17.7168 53.8807 18.2174 53.356 18.6282C52.8262 19.0379 52.228 19.3514 51.589 19.5543C50.8953 19.7733 50.1712 19.8815 49.4436 19.875C48.8295 19.8786 48.2175 19.8028 47.623 19.6493C47.0708 19.5064 46.5413 19.2876 46.0496 18.9992C45.5731 18.7181 45.1396 18.3702 44.7624 17.9661C44.3782 17.5537 44.0533 17.0902 43.797 16.5887C43.5249 16.0543 43.3217 15.4878 43.1921 14.9026C43.0499 14.2622 42.9799 13.608 42.9836 12.9522C42.9796 12.2993 43.0496 11.6481 43.1921 11.0108C43.3221 10.4303 43.5232 9.86797 43.7911 9.33645C44.0429 8.83783 44.3628 8.37631 44.7415 7.96499C45.1125 7.56318 45.5402 7.21718 46.011 6.93782C46.4966 6.65147 47.0202 6.43463 47.5664 6.29367C48.1541 6.14224 48.7591 6.0674 49.3662 6.07102C50.2405 6.05812 51.1084 6.22276 51.9168 6.55489C52.658 6.86507 53.3214 7.33438 53.8596 7.92935C54.4153 8.55655 54.837 9.28985 55.0992 10.0846C55.4002 10.9982 55.5472 11.9552 55.5342 12.9167C55.5342 13.0671 55.5312 13.2155 55.5253 13.3619C55.5194 13.5083 55.5084 13.6706 55.4925 13.8487H45.4448C45.505 14.405 45.6507 14.9487 45.8769 15.4608C46.078 15.9159 46.3653 16.3281 46.7231 16.6749C47.0747 17.0099 47.4915 17.2696 47.9478 17.4379C48.4459 17.619 48.9729 17.7085 49.5031 17.702C50.2831 17.7297 51.0517 17.5082 51.6963 17.0697C52.3289 16.5877 52.8038 15.9295 53.061 15.1786H55.4747ZM53.0372 11.7707C52.9714 11.2498 52.8309 10.7409 52.6201 10.2596C52.4383 9.84675 52.1794 9.47203 51.8573 9.15539C51.5462 8.85584 51.1757 8.62429 50.7697 8.47553C50.3235 8.31589 49.8521 8.23748 49.3781 8.24403C48.8869 8.23838 48.3985 8.3198 47.9359 8.48449C47.5094 8.63832 47.1176 8.87435 46.7827 9.1791C46.441 9.49515 46.1611 9.87162 45.9573 10.2894C45.7291 10.7573 45.5724 11.2566 45.4925 11.7707H53.0372Z" fill="#020202"/>
<path d="M69.336 15.1786C69.1798 15.8747 68.91 16.5406 68.5373 17.1498C68.189 17.7168 67.742 18.2174 67.2174 18.6282C66.6875 19.0379 66.0894 19.3513 65.4504 19.5543C64.7567 19.7733 64.0326 19.8815 63.3049 19.875C62.6908 19.8786 62.0788 19.8028 61.4843 19.6493C60.9321 19.5064 60.4026 19.2876 59.911 18.9992C59.4344 18.7181 59.0009 18.3702 58.6238 17.9661C58.2395 17.5537 57.9146 17.0902 57.6584 16.5887C57.3863 16.0543 57.183 15.4878 57.0534 14.9026C56.9112 14.2622 56.8413 13.608 56.8449 12.9522C56.8409 12.2993 56.9109 11.6481 57.0534 11.0108C57.1834 10.4303 57.3846 9.86798 57.6524 9.33645C57.9043 8.83783 58.2241 8.37631 58.6029 7.96499C58.9739 7.56317 59.4015 7.21717 59.8723 6.93782C60.3579 6.65147 60.8815 6.43462 61.4277 6.29367C62.0155 6.14224 62.6204 6.0674 63.2275 6.07102C64.1019 6.05812 64.9697 6.22275 65.7781 6.55489C66.5193 6.86503 67.1828 7.33431 67.721 7.92928C68.2767 8.55648 68.6984 9.28977 68.9606 10.0845C69.2616 10.9981 69.4086 11.9551 69.3956 12.9166C69.3956 13.067 69.3926 13.2154 69.3867 13.3618C69.3808 13.5082 69.3699 13.6705 69.3539 13.8487H59.3062C59.3664 14.4049 59.5121 14.9486 59.7382 15.4607C59.9394 15.9158 60.2267 16.328 60.5844 16.6748C60.936 17.0098 61.3528 17.2695 61.8091 17.4378C62.3072 17.619 62.8342 17.7085 63.3644 17.7019C64.1445 17.7297 64.913 17.5082 65.5577 17.0697C66.1903 16.5877 66.6652 15.9295 66.9224 15.1786H69.336ZM66.8985 11.7707C66.8327 11.2498 66.6922 10.7409 66.4814 10.2596C66.2996 9.84675 66.0408 9.47202 65.7186 9.15539C65.4075 8.85583 65.037 8.62428 64.631 8.47553C64.1848 8.31589 63.7135 8.23747 63.2394 8.24403C62.7482 8.23838 62.2599 8.3198 61.7972 8.48449C61.3708 8.63832 60.9789 8.87435 60.644 9.1791C60.3023 9.49515 60.0225 9.87162 59.8186 10.2894C59.5904 10.7573 59.4337 11.2566 59.3538 11.7707H66.8985Z" fill="#020202"/>
<path d="M73.4185 10.458C73.5745 9.82243 73.8151 9.21043 74.1337 8.63824C74.4193 8.12364 74.7854 7.65767 75.2183 7.25783C75.6285 6.88224 76.1041 6.58446 76.6217 6.37915C77.154 6.17079 77.7214 6.066 78.2933 6.07045C78.8148 6.06761 79.3335 6.14571 79.8309 6.30195C80.3104 6.45375 80.7637 6.67802 81.1748 6.96692C81.5934 7.26289 81.9686 7.61561 82.2893 8.01488C82.6287 8.43707 82.9121 8.90102 83.1325 9.39529C83.3708 9.93037 83.5496 10.4898 83.6659 11.0636C83.9161 12.3219 83.9161 13.6169 83.6659 14.8753C83.5494 15.45 83.3706 16.0104 83.1325 16.5467C82.9126 17.0421 82.6291 17.5071 82.2893 17.9301C81.9686 18.3293 81.5935 18.682 81.1748 18.9779C80.7637 19.2669 80.3104 19.4912 79.8309 19.6429C79.3335 19.7992 78.8148 19.8774 78.2933 19.8745C77.7214 19.8789 77.154 19.7741 76.6217 19.5657C76.104 19.3605 75.6284 19.0627 75.2182 18.687C74.7849 18.2866 74.4187 17.8196 74.1337 17.3037C73.8154 16.7304 73.5749 16.1175 73.4185 15.481V24.0009H71.0049V6.4267H73.4185L73.4185 10.458ZM73.4185 12.9694C73.4089 13.6494 73.5023 14.327 73.6957 14.9792C73.8582 15.5296 74.1308 16.0416 74.4972 16.4843C74.8435 16.8935 75.28 17.2176 75.7726 17.4313C76.3094 17.6582 76.888 17.7704 77.4711 17.7608C78.0554 17.7719 78.636 17.6659 79.1784 17.4491C79.6625 17.2492 80.0893 16.933 80.4209 16.5288C80.7742 16.0849 81.0328 15.5737 81.1807 15.0266C81.3633 14.3563 81.4505 13.6638 81.4399 12.9694C81.4505 12.2749 81.3633 11.5824 81.1807 10.9121C81.0332 10.3658 80.7746 9.85557 80.4208 9.413C80.0885 9.01029 79.6618 8.69526 79.1783 8.49572C78.6359 8.27895 78.0554 8.17294 77.471 8.184C76.8883 8.17442 76.3099 8.28561 75.7726 8.5105C75.2797 8.72245 74.8431 9.04563 74.4972 9.45452C74.1308 9.89726 73.8582 10.4092 73.6956 10.9597C73.5023 11.6119 73.4088 12.2894 73.4185 12.9694Z" fill="#020202"/>
<path d="M85.343 11.0261C85.3383 10.1908 85.4262 9.3575 85.6051 8.54138C85.7683 7.79646 86.0235 7.07456 86.365 6.39217C86.6858 5.75295 87.0917 5.1598 87.5718 4.62877C88.0392 4.1127 88.5792 3.66674 89.1749 3.30476C89.784 2.93695 90.442 2.65616 91.1295 2.47062C92.6102 2.08271 94.1663 2.08271 95.6469 2.47062C96.3344 2.65618 96.9924 2.93696 97.6016 3.30476C98.1978 3.66722 98.7387 4.11311 99.2077 4.62877C99.689 5.15883 100.095 5.75216 100.414 6.39217C100.754 7.07529 101.009 7.79698 101.174 8.54138C101.355 9.35724 101.444 10.1906 101.44 11.0261C101.444 11.8606 101.355 12.693 101.174 13.5079C101.01 14.2534 100.754 14.9761 100.414 15.6601C100.095 16.3001 99.689 16.8935 99.2077 17.4235C98.7388 17.9392 98.1979 18.3851 97.6016 18.7474C96.9925 19.1153 96.3345 19.3961 95.6469 19.5817C94.1663 19.9696 92.6102 19.9696 91.1296 19.5817C90.442 19.3962 89.7841 19.1153 89.1749 18.7474C88.5792 18.3856 88.0392 17.9396 87.5718 17.4235C87.0917 16.8925 86.6858 16.2993 86.365 15.6601C86.0233 14.9768 85.768 14.2539 85.6051 13.5079C85.4265 12.6927 85.3386 11.8605 85.343 11.0261ZM87.8459 11.0261C87.8327 11.9542 87.9603 12.879 88.2243 13.7692C88.4459 14.5195 88.8179 15.2173 89.3178 15.8205C89.7913 16.3782 90.388 16.8191 91.061 17.1088C92.5545 17.7064 94.2219 17.7064 95.7154 17.1088C96.3884 16.8191 96.985 16.3782 97.4585 15.8205C97.9586 15.217 98.3316 14.5194 98.5551 13.7692C98.8211 12.8794 98.9497 11.9545 98.9365 11.0261C98.9497 10.0978 98.8211 9.17293 98.5551 8.28314C98.3316 7.53292 97.9587 6.83526 97.4585 6.23183C96.985 5.67421 96.3884 5.23324 95.7155 4.94341C94.222 4.34575 92.5545 4.34575 91.0611 4.94341C90.3881 5.23324 89.7915 5.6742 89.3179 6.23183C88.818 6.83494 88.446 7.53277 88.2243 8.28314C87.9604 9.17329 87.8327 10.098 87.8459 11.0261Z" fill="#020202"/>
<path d="M109.664 2.18039C110.6 2.16897 111.532 2.29705 112.429 2.56037C113.199 2.78434 113.918 3.15315 114.548 3.64685C115.127 4.10909 115.591 4.69833 115.904 5.36862C116.23 6.08611 116.393 6.86677 116.38 7.65444H113.937C113.944 7.19033 113.837 6.73157 113.624 6.31858C113.412 5.91892 113.112 5.57271 112.745 5.30629C112.336 5.01203 111.877 4.79381 111.389 4.66214C110.822 4.50632 110.235 4.43039 109.646 4.43657C109.291 4.43666 108.937 4.46144 108.586 4.51075C108.241 4.55818 107.901 4.63362 107.569 4.73633C107.256 4.83277 106.954 4.96112 106.667 5.11932C106.4 5.26466 106.157 5.44877 105.946 5.66558C105.744 5.87363 105.582 6.11593 105.466 6.38102C105.346 6.66145 105.286 6.96373 105.29 7.26853C105.273 7.6398 105.382 8.006 105.6 8.30756C105.835 8.59415 106.138 8.81766 106.482 8.95775C106.928 9.1452 107.394 9.28161 107.87 9.36437C108.415 9.46742 109.025 9.57036 109.7 9.67319L110.582 9.80376C110.943 9.85926 111.312 9.91763 111.688 9.97888C112.063 10.0401 112.436 10.1134 112.805 10.1987C113.17 10.2824 113.53 10.3855 113.884 10.5074C114.225 10.6246 114.557 10.7685 114.876 10.9378C115.184 11.1013 115.472 11.2995 115.734 11.5286C115.995 11.7575 116.221 12.0236 116.404 12.3182C116.599 12.6358 116.747 12.9798 116.842 13.3395C116.953 13.763 117.006 14.1993 117 14.6368C117.006 15.1832 116.926 15.7272 116.762 16.2487C116.611 16.7224 116.38 17.167 116.08 17.5637C115.778 17.9572 115.415 18.3 115.004 18.579C114.562 18.8787 114.083 19.1211 113.58 19.3004C113.019 19.5004 112.44 19.6446 111.851 19.7308C111.196 19.8281 110.535 19.8758 109.873 19.8734C108.835 19.8868 107.801 19.7599 106.798 19.4963C105.966 19.2808 105.184 18.9079 104.494 18.398C103.877 17.9323 103.381 17.3255 103.049 16.6287C102.705 15.8816 102.534 15.0669 102.549 14.245H104.992C104.984 14.7379 105.101 15.225 105.332 15.661C105.565 16.0867 105.897 16.4509 106.3 16.7237C106.764 17.0347 107.281 17.2599 107.826 17.3887C108.484 17.5481 109.16 17.6249 109.837 17.6173C110.25 17.618 110.663 17.5922 111.074 17.5401C111.454 17.4927 111.83 17.4122 112.197 17.2996C112.53 17.198 112.85 17.0607 113.153 16.89C113.429 16.7353 113.68 16.539 113.895 16.3081C114.101 16.0852 114.265 15.8266 114.378 15.5452C114.497 15.2406 114.556 14.916 114.551 14.5893C114.557 14.3117 114.51 14.0356 114.411 13.7759C114.321 13.551 114.183 13.3476 114.009 13.1792C113.823 13.0039 113.61 12.8604 113.377 12.7547C113.108 12.632 112.829 12.5337 112.542 12.4608C112.233 12.3798 111.897 12.3085 111.535 12.2471C111.174 12.1856 110.79 12.1233 110.385 12.0601L109.277 11.8939C108.792 11.8187 108.295 11.7385 107.787 11.6534C107.289 11.5708 106.796 11.4588 106.312 11.318C105.85 11.1844 105.4 11.0116 104.968 10.8014C104.559 10.6044 104.186 10.3406 103.865 10.0207C103.544 9.69539 103.291 9.31 103.121 8.88676C102.927 8.38806 102.834 7.85644 102.846 7.32202C102.841 6.79142 102.924 6.26363 103.094 5.76058C103.252 5.2976 103.487 4.86416 103.788 4.47808C104.092 4.09213 104.454 3.75476 104.861 3.47766C105.291 3.18387 105.755 2.94267 106.243 2.75924C106.769 2.56161 107.313 2.41641 107.867 2.32577C108.461 2.22759 109.062 2.17896 109.664 2.18039Z" fill="#020202"/>
<path d="M21.4804 0H0.370751C0.165991 0 0 0.165371 0 0.369366V21.4002C0 21.6042 0.165991 21.7695 0.370751 21.7695H21.4804C21.6852 21.7695 21.8512 21.6042 21.8512 21.4002V0.369366C21.8512 0.165371 21.6852 0 21.4804 0Z" fill="#406CF4"/>
<path d="M10.0755 2.46875H3.78156C3.62498 2.46875 3.49805 2.59521 3.49805 2.7512V10.0949C3.49805 10.2509 3.62498 10.3774 3.78156 10.3774H10.0755C10.2321 10.3774 10.359 10.2509 10.359 10.0949V2.7512C10.359 2.59521 10.2321 2.46875 10.0755 2.46875Z" fill="white"/>
<path d="M10.0755 11.5078H3.78156C3.62498 11.5078 3.49805 11.6343 3.49805 11.7903V19.134C3.49805 19.29 3.62498 19.4164 3.78156 19.4164H10.0755C10.2321 19.4164 10.359 19.29 10.359 19.134V11.7903C10.359 11.6343 10.2321 11.5078 10.0755 11.5078Z" fill="white"/>
<path d="M13.818 11.6207C13.7447 11.5484 13.6457 11.5078 13.5425 11.5078H11.7757C11.7005 11.5078 11.6284 11.5376 11.5752 11.5905C11.5221 11.6435 11.4922 11.7154 11.4922 11.7903V19.134C11.4922 19.2089 11.5221 19.2807 11.5752 19.3337C11.6284 19.3867 11.7005 19.4164 11.7757 19.4164H19.147C19.2222 19.4164 19.2943 19.3867 19.3475 19.3337C19.4006 19.2807 19.4305 19.2089 19.4305 19.134V17.3196C19.4305 17.268 19.4203 17.217 19.4003 17.1694C19.3804 17.1218 19.3512 17.0786 19.3144 17.0423L13.818 11.6207Z" fill="white"/>
<path d="M19.147 2.46875H11.7757C11.7005 2.46875 11.6284 2.49851 11.5752 2.55148C11.5221 2.60445 11.4922 2.67629 11.4922 2.7512V10.0949C11.4922 10.1698 11.5221 10.2417 11.5752 10.2947C11.6284 10.3476 11.7005 10.3774 11.7757 10.3774H13.5425C13.6457 10.3774 13.7447 10.3368 13.818 10.2645L19.3144 4.84285C19.3512 4.80657 19.3804 4.7634 19.4003 4.71581C19.4202 4.66823 19.4305 4.61718 19.4305 4.56562V2.7512C19.4305 2.67631 19.4006 2.60449 19.3474 2.55152C19.2943 2.49856 19.2222 2.46879 19.147 2.46875Z" fill="white"/>
</svg>
