<svg width="64" height="64" viewBox="0 0 64 64" fill="none" xmlns="http://www.w3.org/2000/svg">
<path d="M43.334 51.1666C45.635 51.1668 47.5 53.0325 47.5 55.3336C47.4998 57.6345 45.6349 59.4995 43.334 59.4996C41.0329 59.4996 39.1672 57.6347 39.167 55.3336C39.167 53.0324 41.0328 51.1666 43.334 51.1666Z" fill="#8E98A8" stroke="#8E98A8"/>
<path d="M22 51.1666C24.301 51.1668 26.166 53.0325 26.166 55.3336C26.1658 57.6345 24.3009 59.4995 22 59.4996C19.6989 59.4996 17.8332 57.6347 17.833 55.3336C17.833 53.0324 19.6988 51.1666 22 51.1666Z" fill="#8E98A8" stroke="#8E98A8"/>
<path opacity="0.4" d="M5.33301 3.83337H10.0527C11.7202 3.83337 13.3491 4.50747 14.5459 5.67322L14.7793 5.91248C15.5405 6.77476 16.0358 7.81365 16.2852 8.91052L16.374 9.30017H49.4932C53.9247 9.30026 57.293 12.8956 56.9678 17.3236V17.3246C56.9067 18.1783 56.1952 18.8334 55.333 18.8334H14.5059C13.5363 18.8331 12.7901 18.0346 12.8711 17.0824V17.0804L13.4043 10.5472L13.4053 10.5385C13.4668 9.58232 13.1574 8.64795 12.502 7.93005V7.92908L12.4951 7.92126L12.3701 7.79724C11.7312 7.19067 10.8807 6.83337 9.97266 6.83337H5.33301C4.51582 6.83337 3.83301 6.15057 3.83301 5.33337C3.83301 4.51618 4.51582 3.83337 5.33301 3.83337Z" fill="#8E98A8" stroke="#8E98A8"/>
<path d="M13.7861 23.8334H54.6924C55.6582 23.8334 56.3825 24.6281 56.3018 25.557L56.3008 25.5648L55.4209 38.017C55.1466 41.7567 51.8431 44.8332 48.1064 44.8334H18.4531C14.3213 44.8334 11.0512 41.3912 11.1689 37.3168L11.1914 36.9213L12.1504 25.3285C12.2328 24.4845 12.9303 23.8334 13.7861 23.8334Z" fill="#8E98A8" stroke="#8E98A8"/>
</svg>
